<?xml version="1.0" encoding="UTF-8"?>
<svg width="24px" height="24px" viewBox="0 0 24 24" version="1.1" xmlns="http://www.w3.org/2000/svg" xmlns:xlink="http://www.w3.org/1999/xlink">
    <!-- Generator: sketchtool 49.3 (51167) - http://www.bohemiancoding.com/sketch -->
    <title>A5DB0008-FBA5-4EA7-905D-878F67DD788B</title>
    <desc>Created with sketchtool.</desc>
    <defs></defs>
    <g id="Page-1" stroke="none" stroke-width="1" fill="none" fill-rule="evenodd">
        <g id="MTS-RBT-Catalog-List-v2" transform="translate(-16.000000, -228.000000)">
            <g id="Sidebar">
                <g id="menu-copy-5" transform="translate(0.000000, 216.000000)">
                    <g id="ico04" transform="translate(16.000000, 12.000000)">
                        <rect id="Rectangle-4" x="0" y="0" width="24" height="24"></rect>
                        <g id="Page-1" stroke-width="1" fill-rule="evenodd" fill="#B0B0B0">
                            <path d="M1,21 L10,21 L10,14 L1,14 L1,21 Z M1,24 L10,24 C10.55,24 11,23.55 11,23 L11,14 C11,13.45 10.55,13 10,13 L1,13 C0.45,13 0,13.45 0,14 L0,23 C0,23.55 0.45,24 1,24 L1,24 Z" id="Fill-1"></path>
                            <path d="M14,21 L23,21 L23,14 L14,14 L14,21 Z M14,24 L23,24 C23.55,24 24,23.55 24,23 L24,14 C24,13.45 23.55,13 23,13 L14,13 C13.45,13 13,13.45 13,14 L13,23 C13,23.55 13.45,24 14,24 L14,24 Z" id="Fill-3"></path>
                            <path d="M14,8 L23,8 L23,1 L14,1 L14,8 Z M14,11 L23,11 C23.55,11 24,10.55 24,10 L24,1 C24,0.45 23.55,0 23,0 L14,0 C13.45,0 13,0.45 13,1 L13,10 C13,10.55 13.45,11 14,11 L14,11 Z" id="Fill-4"></path>
                            <path d="M1,8 L10,8 L10,1 L1,1 L1,8 Z M1,11 L10,11 C10.55,11 11,10.55 11,10 L11,1 C11,0.45 10.55,0 10,0 L1,0 C0.45,0 0,0.45 0,1 L0,10 C0,10.55 0.45,11 1,11 L1,11 Z" id="Fill-5"></path>
                        </g>
                    </g>
                </g>
            </g>
        </g>
    </g>
</svg>