<?xml version="1.0" encoding="UTF-8"?>
<svg width="24px" height="24px" viewBox="0 0 24 24" version="1.1" xmlns="http://www.w3.org/2000/svg" xmlns:xlink="http://www.w3.org/1999/xlink">
    <!-- Generator: sketchtool 49.3 (51167) - http://www.bohemiancoding.com/sketch -->
    <title>F8749FFA-FAD3-4BE0-93FC-2D1F980BAE90</title>
    <desc>Created with sketchtool.</desc>
    <defs></defs>
    <g id="Symbols" stroke="none" stroke-width="1" fill="none" fill-rule="evenodd">
        <g id="ico03">
            <rect id="Rectangle-4" x="0" y="0" width="24" height="24"></rect>
            <path d="M17,16 C16.448,16 16,15.552 16,15 C16,14.448 16.448,14 17,14 C17.552,14 18,14.448 18,15 C18,15.552 17.552,16 17,16 L17,16 Z M7,20 C6.448,20 6,19.552 6,19 C6,18.448 6.448,18 7,18 C7.552,18 8,18.448 8,19 C8,19.552 7.552,20 7,20 L7,20 Z M9,6 L9,8 L9,9 L9,16.779 C8.468,16.3 7.772,16 7,16 C5.343,16 4,17.343 4,19 C4,20.657 5.343,22 7,22 C8.657,22 10,20.657 10,19 L10,8.636 L19,5.364 L19,12.779 C18.468,12.3 17.772,12 17,12 C15.343,12 14,13.343 14,15 C14,16.657 15.343,18 17,18 C18.657,18 20,16.657 20,15 L20,5 L20,2 L9,6 Z" id="Page-1" fill="#B0B0B0"></path>
        </g>
    </g>
</svg>