<?xml version="1.0" encoding="UTF-8"?>
<svg width="24px" height="24px" viewBox="0 0 24 24" version="1.1" xmlns="http://www.w3.org/2000/svg" xmlns:xlink="http://www.w3.org/1999/xlink">
    <!-- Generator: sketchtool 49.3 (51167) - http://www.bohemiancoding.com/sketch -->
    <title>38171606-055A-47A3-9EA5-31CB205E0EF8</title>
    <desc>Created with sketchtool.</desc>
    <defs></defs>
    <g id="Symbols" stroke="none" stroke-width="1" fill="none" fill-rule="evenodd">
        <g id="ico01">
            <rect id="Rectangle-4" x="0" y="0" width="24" height="24"></rect>
            <path d="M18,20 L6,20 L6,2 L18,2 L18,20 Z M12,23 C11.448,23 11,22.552 11,22 C11,21.448 11.448,21 12,21 C12.552,21 13,21.448 13,22 C13,22.552 12.552,23 12,23 L12,23 Z M17,0 L7,0 C5.9,0 5,0.9 5,2 L5,22 C5,23.1 5.9,24 7,24 L17,24 C18.1,24 19,23.1 19,22 L19,2 C19,0.9 18.1,0 17,0 L17,0 Z" id="Page-1" fill="#B0B0B0"></path>
        </g>
    </g>
</svg>