<?xml version="1.0" encoding="UTF-8"?>
<svg width="24px" height="24px" viewBox="0 0 24 24" version="1.1" xmlns="http://www.w3.org/2000/svg" xmlns:xlink="http://www.w3.org/1999/xlink">
    <!-- Generator: sketchtool 49.3 (51167) - http://www.bohemiancoding.com/sketch -->
    <title>ABC2E954-096B-4FEF-B160-D6DDCB8FB93D</title>
    <desc>Created with sketchtool.</desc>
    <defs>
        <polygon id="path-1" points="0 0 20 0 20 20 0 20"></polygon>
    </defs>
    <g id="Symbols" stroke="none" stroke-width="1" fill="none" fill-rule="evenodd">
        <g id="ico06">
            <rect id="Rectangle-4" x="0" y="0" width="24" height="24"></rect>
            <g id="Page-1" transform="translate(2.000000, 2.000000)">
                <mask id="mask-2" fill="white">
                    <use xlink:href="#path-1"></use>
                </mask>
                <g id="Clip-2"></g>
                <path d="M10,15 C7.239,15 5,12.761 5,10 C5,7.239 7.239,5 10,5 C12.761,5 15,7.239 15,10 C15,12.761 12.761,15 10,15 L10,15 Z M17.903,11.181 C17.961,10.794 18,10.402 18,10 C18,9.598 17.961,9.206 17.903,8.82 L19.808,7.37 C20.003,7.22 20.06,6.95 19.931,6.73 L17.875,3.265 C17.747,3.05 17.48,2.96 17.248,3.05 L15.144,3.877 C14.473,3.313 13.707,2.862 12.875,2.541 L12.567,0.42 C12.521,0.185 12.31,0 12.053,0 L7.942,0 C7.685,0 7.474,0.185 7.433,0.42 L7.125,2.541 C6.293,2.862 5.527,3.313 4.856,3.877 L2.752,3.05 C2.52,2.965 2.253,3.05 2.125,3.265 L0.069,6.73 C-0.06,6.945 -0.003,7.215 0.192,7.37 L2.096,8.823 C2.039,9.208 2,9.599 2,10 C2,10.401 2.039,10.792 2.096,11.177 L0.192,12.63 C-0.003,12.78 -0.06,13.05 0.069,13.27 L2.125,16.735 C2.253,16.95 2.52,17.04 2.752,16.95 L4.856,16.123 C5.527,16.687 6.293,17.138 7.125,17.459 L7.433,19.58 C7.474,19.815 7.685,20 7.942,20 L12.053,20 C12.31,20 12.521,19.815 12.562,19.58 L12.87,17.461 C13.703,17.14 14.47,16.689 15.142,16.125 L17.243,16.95 C17.475,17.035 17.742,16.95 17.87,16.735 L19.926,13.27 C20.054,13.055 19.998,12.785 19.803,12.63 L17.903,11.181 Z" id="Fill-1" fill="#B0B0B0" mask="url(#mask-2)"></path>
            </g>
        </g>
    </g>
</svg>